<?xml version="1.0" encoding="utf-8"?>
<!-- Generator: Adobe Illustrator 24.2.1, SVG Export Plug-In . SVG Version: 6.00 Build 0)  -->
<svg version="1.1" id="Layer_1" xmlns="http://www.w3.org/2000/svg" xmlns:xlink="http://www.w3.org/1999/xlink" x="0px" y="0px"
	 viewBox="0 0 221.1 34.5" style="enable-background:new 0 0 221.1 34.5;" xml:space="preserve">
<style type="text/css">
	.st0{fill:#62A533;}
	.st1{fill:#FFFFFF;}
</style>
<rect class="st0" width="221.1" height="34.5"/>
<g id="_x30_a660021-0821-4ffc-a5c3-6c70c527eeff" transform="matrix(1.691201183015931,0,0,1.691201183015931,104.34183637549533,134.07734052320544)">
	<path class="st1" d="M-15.4-74.7v1.1h-3.2v8.2h-1.1v-8.2H-23v-1.1H-15.4z M-10.5-72.6L-10.5-72.6c0.8,0,1.4,0.2,2,0.7l0,0l0,0
		c0.5,0.5,0.8,1.1,0.8,2l0,0v4.5h-1.1v-4.1l0,0c0-0.7-0.2-1.3-0.5-1.6l0,0l0,0c-0.3-0.3-0.7-0.5-1.3-0.5l0,0l0,0
		c-0.4,0-0.7,0.1-1.1,0.3l0,0l0,0c-0.3,0.2-0.6,0.4-0.8,0.8l0,0l0,0c-0.2,0.4-0.3,0.8-0.3,1.4l0,0v3.7h-1.1v-10.2h1.1v4.3l0,0
		c0.2-0.4,0.5-0.7,0.9-0.9l0,0l0,0C-11.5-72.5-11-72.6-10.5-72.6L-10.5-72.6z M0.7-69.3L0.7-69.3c0,0.3,0,0.5-0.1,0.8l0,0h-5.3l0,0
		c0.1,0.7,0.3,1.3,0.7,1.7l0,0l0,0c0.4,0.4,0.9,0.6,1.6,0.6l0,0l0,0c0.5,0,0.9-0.1,1.3-0.3l0,0l0,0c0.3-0.2,0.6-0.4,0.7-0.8l0,0
		l0.9,0.5l0,0c-0.3,0.5-0.7,0.9-1.1,1.1l0,0l0,0c-0.5,0.3-1.1,0.4-1.8,0.4l0,0l0,0c-1.1,0-1.9-0.3-2.5-1l0,0l0,0
		c-0.6-0.6-0.9-1.5-0.9-2.7l0,0l0,0c0-1.1,0.3-2,0.9-2.7l0,0l0,0c0.6-0.6,1.4-1,2.4-1l0,0l0,0c0.7,0,1.2,0.1,1.7,0.4l0,0l0,0
		c0.5,0.3,0.8,0.7,1.1,1.2l0,0l0,0C0.6-70.5,0.7-69.9,0.7-69.3L0.7-69.3z M-2.4-71.6L-2.4-71.6c-0.6,0-1.1,0.2-1.5,0.6l0,0l0,0
		c-0.4,0.4-0.6,0.9-0.7,1.5l0,0h4.2l0,0C-0.4-70.2-0.6-70.7-1-71l0,0l0,0C-1.3-71.4-1.8-71.6-2.4-71.6L-2.4-71.6z M14.3-73.6H9v3
		h4.2v1H9v4.2H7.8v-9.2h6.5V-73.6z M18.9-72.6L18.9-72.6c0.3,0,0.6,0,0.8,0.1l0,0l-0.2,1.1l0,0c-0.2-0.1-0.5-0.2-0.9-0.2l0,0l0,0
		c-0.3,0-0.6,0.1-0.9,0.3l0,0l0,0c-0.3,0.2-0.5,0.4-0.7,0.8l0,0l0,0c-0.2,0.4-0.3,0.8-0.3,1.3l0,0v3.8h-1.1v-7h0.9l0.2,1.2l0,0
		C17.1-72.1,17.8-72.6,18.9-72.6L18.9-72.6z M24-72.6L24-72.6c1.1,0,1.9,0.3,2.5,1l0,0l0,0c0.6,0.6,0.9,1.5,0.9,2.7l0,0l0,0
		c0,1.1-0.3,2-0.9,2.7l0,0l0,0c-0.6,0.6-1.4,1-2.5,1l0,0l0,0c-1.1,0-1.9-0.3-2.5-1l0,0l0,0c-0.6-0.6-0.9-1.5-0.9-2.7l0,0l0,0
		c0-1.1,0.3-2,0.9-2.7l0,0l0,0C22.2-72.2,23-72.6,24-72.6L24-72.6z M24-71.6L24-71.6c-0.7,0-1.3,0.2-1.7,0.7l0,0l0,0
		c-0.4,0.5-0.6,1.1-0.6,2l0,0l0,0c0,0.8,0.2,1.5,0.6,2l0,0l0,0c0.4,0.5,1,0.7,1.7,0.7l0,0l0,0c0.7,0,1.3-0.2,1.7-0.7l0,0l0,0
		c0.4-0.5,0.6-1.1,0.6-2l0,0l0,0c0-0.8-0.2-1.5-0.6-2l0,0l0,0C25.3-71.4,24.8-71.6,24-71.6L24-71.6z M33.5-66.3L33.5-66.3
		c0.7,0,1.2,0.2,1.6,0.4l0,0l0,0c0.4,0.3,0.6,0.7,0.6,1.2l0,0l0,0c0,0.4-0.2,0.8-0.5,1.2l0,0l0,0c-0.3,0.3-0.7,0.6-1.3,0.8l0,0l0,0
		c-0.5,0.2-1.1,0.3-1.7,0.3l0,0l0,0c-1.1,0-1.9-0.2-2.4-0.5l0,0l0,0c-0.5-0.3-0.8-0.8-0.8-1.3l0,0l0,0c0-0.3,0.1-0.6,0.3-0.8l0,0
		l0,0c0.2-0.2,0.5-0.4,0.9-0.5l0,0l0,0c-0.3-0.1-0.5-0.3-0.7-0.5l0,0l0,0c-0.2-0.2-0.3-0.5-0.3-0.8l0,0l0,0c0-0.3,0.1-0.6,0.3-0.9
		l0,0l0,0c0.2-0.2,0.4-0.4,0.8-0.5l0,0l0,0c-0.3-0.2-0.6-0.5-0.8-0.8l0,0l0,0c-0.2-0.3-0.3-0.7-0.3-1.1l0,0l0,0
		c0-0.5,0.1-0.9,0.4-1.2l0,0l0,0c0.2-0.4,0.6-0.6,1-0.8l0,0l0,0c0.4-0.2,0.9-0.3,1.5-0.3l0,0l0,0c0.5,0,1,0.1,1.4,0.3l0,0l0,0
		c0.3-1,0.9-1.4,2-1.4l0,0l0.3,1l0,0c-0.9,0-1.5,0.3-1.7,0.8l0,0l0,0c0.3,0.2,0.5,0.5,0.7,0.8l0,0l0,0c0.2,0.3,0.2,0.6,0.2,1l0,0
		l0,0c0,0.5-0.1,0.9-0.4,1.2l0,0l0,0c-0.2,0.4-0.6,0.6-1,0.8l0,0l0,0c-0.4,0.2-0.9,0.3-1.5,0.3l0,0l0,0c-0.4,0-0.8,0-1.1-0.1l0,0
		l0,0c-0.3,0.1-0.5,0.2-0.6,0.3l0,0l0,0c-0.1,0.1-0.2,0.3-0.2,0.6l0,0l0,0c0,0.2,0.1,0.4,0.3,0.6l0,0l0,0c0.2,0.1,0.4,0.2,0.7,0.2
		l0,0H33.5z M32.1-71.7L32.1-71.7c-0.5,0-0.9,0.1-1.2,0.4l0,0l0,0c-0.3,0.3-0.5,0.6-0.5,1l0,0l0,0c0,0.4,0.2,0.8,0.5,1.1l0,0l0,0
		c0.3,0.3,0.7,0.4,1.2,0.4l0,0l0,0c0.5,0,0.9-0.1,1.2-0.4l0,0l0,0c0.3-0.3,0.5-0.6,0.5-1.1l0,0l0,0c0-0.4-0.2-0.8-0.5-1l0,0l0,0
		C33-71.5,32.6-71.7,32.1-71.7L32.1-71.7z M32.3-63.4L32.3-63.4c0.7,0,1.3-0.1,1.7-0.3l0,0l0,0c0.4-0.2,0.6-0.5,0.6-0.8l0,0l0,0
		c0-0.3-0.1-0.5-0.3-0.6l0,0l0,0c-0.2-0.1-0.6-0.2-1.1-0.2l0,0h-1.9l0,0c-0.4,0-0.8,0.1-1,0.2l0,0l0,0C30.1-65,30-64.8,30-64.5l0,0
		l0,0c0,0.4,0.2,0.6,0.6,0.8l0,0l0,0C31-63.5,31.5-63.4,32.3-63.4L32.3-63.4z M49.7-67.8L49.7-67.8C49.4-67,49-66.4,48.3-66l0,0l0,0
		c-0.7,0.4-1.4,0.7-2.3,0.7l0,0l0,0c-0.9,0-1.6-0.2-2.3-0.6l0,0l0,0c-0.6-0.4-1.1-0.9-1.5-1.7l0,0l0,0c-0.3-0.7-0.5-1.6-0.5-2.5l0,0
		l0,0c0-1,0.2-1.8,0.5-2.5l0,0l0,0c0.4-0.7,0.8-1.3,1.5-1.7l0,0l0,0c0.6-0.4,1.4-0.6,2.2-0.6l0,0l0,0c0.9,0,1.6,0.2,2.2,0.6l0,0l0,0
		c0.6,0.4,1,0.9,1.3,1.6l0,0l-1.1,0.5l0,0c-0.2-0.5-0.5-0.9-0.9-1.2l0,0l0,0c-0.4-0.3-0.9-0.4-1.5-0.4l0,0l0,0
		c-0.6,0-1.2,0.1-1.7,0.4l0,0l0,0c-0.5,0.3-0.8,0.7-1.1,1.3l0,0l0,0c-0.3,0.6-0.4,1.2-0.4,2l0,0l0,0c0,1.2,0.3,2.1,0.8,2.7l0,0l0,0
		c0.6,0.7,1.3,1,2.3,1l0,0l0,0c0.6,0,1.2-0.2,1.6-0.5l0,0l0,0c0.5-0.3,0.8-0.8,1-1.4l0,0L49.7-67.8z M56.6-72.4h1.1v7h-1l-0.1-1.1
		l0,0c-0.5,0.8-1.3,1.2-2.5,1.2l0,0l0,0c-0.8,0-1.4-0.2-1.9-0.6l0,0l0,0c-0.5-0.4-0.7-1.1-0.7-1.9l0,0v-4.6h1.1v4.3l0,0
		c0,0.7,0.1,1.2,0.4,1.4l0,0l0,0c0.3,0.3,0.7,0.4,1.2,0.4l0,0l0,0c0.6,0,1.2-0.2,1.6-0.6l0,0l0,0c0.4-0.4,0.6-1,0.6-1.8l0,0V-72.4z
		 M61.4-75.7v8.3l0,0c0,0.4,0.1,0.6,0.2,0.7l0,0l0,0c0.1,0.1,0.3,0.2,0.6,0.2l0,0l0,0c0.2,0,0.4,0,0.5,0l0,0l0,0
		c0.1,0,0.3-0.1,0.5-0.1l0,0L63-65.5l0,0c-0.3,0.1-0.7,0.2-1,0.2l0,0l0,0c-0.6,0-1-0.2-1.3-0.5l0,0l0,0c-0.3-0.3-0.4-0.8-0.4-1.4
		l0,0v-8.5H61.4z M68.2-66.9l0.4,0.9l0,0c-0.5,0.4-1.1,0.6-1.8,0.6l0,0l0,0c-0.6,0-1-0.2-1.4-0.5l0,0l0,0c-0.4-0.3-0.5-0.8-0.6-1.4
		l0,0v-4.3h-1.4v-1h1.4v-1.7l1.1-0.3v2h2.6v1H66v4.1l0,0c0,0.3,0.1,0.6,0.3,0.8l0,0l0,0c0.2,0.2,0.4,0.3,0.8,0.3l0,0l0,0
		C67.5-66.3,67.9-66.5,68.2-66.9L68.2-66.9z"/>
</g>
<g id="_x38_c057e50-e7c7-4604-8baa-3807ed69fa03" transform="matrix(0.054399516689951403,0,0,0.054399516689951403,13.776980926447113,120.9548989190291)">
	<path class="st1" d="M699.4-1729.4c-6.3-6.3-12.5-9.3-18.9-9.3c-5.5,0-9.7,2.2-13.1,3.9c-2.8,1.4-4.4,2.2-5.5,2.5
		c-0.7-0.5-2.4-2.8-3.4-4.3c-3.7-5.3-10-14.1-22.2-14.1c-7.2,0-14.7,2.9-22.6,6.1c-8.7,3.4-18.4,7.3-28,7.3
		c-33.2,0-66.5-38.8-91.6-72.3c-0.5-4.5,16.1-18.2,31-20.2c2.7-0.4,3.8,0.1,8,4c3.6,3.4,9.1,8.6,17.5,8.6c5.5,0,11.2-2.2,17.4-6.7
		c5.5-4,8.4-8.8,8.6-14.2c0-1.7-0.2-3.4-0.7-5.1c0.7,0.2,1.3,0.5,2,0.7c6.7,2.5,12.5,4.7,17.7,4.7c5.3,0,8.7-2.2,10.5-4.1
		c5-5,6.4-12.1,3.6-18.8c-4-9.7-17.4-18.5-29-21.8c0-0.7,0-1.3,0.1-2c0.4-10.4,0.9-24.6-7.4-33.2c-1.5-1.6-3.3-2.9-5.2-3.9
		c3.8-5.2,8.3-11.3,12.3-16.8c16.2-21.9,36.4-49.1,45.1-66.9c7.4-15.1,17-25.4,26.4-35.4c15.5-16.6,31.5-33.8,31.5-68.3
		c0-12.1-7.7-17.2-13.9-21.4c-2-1.4-4.4-2.9-6.9-5c-2.6-2.1-5.3-4.8-8.1-7.6c-9.1-8.8-18.4-18-29.1-19l-15.5-1.4
		c-27-2.4-44.8-4-49.7-9c-24.1-24.1-71-41-87.3-41c-9.7,0-17.8,7.4-28.2,16.7c-6.1,5.5-13,11.7-20.5,16.5c-4.7,3-14.7,6.8-26.2,11.1
		c-19.2,7.2-43.1,16.2-64.8,29.7c-14.8,9.2-28.1,20-41,30.4c-18,14.6-35,28.4-51,32.9c-12.2,3.4-24.6,3.9-36.3,3.9
		c-4.3,0-8.7-0.1-13.2-0.1c-4.9-0.1-9.9-0.2-15-0.2c-19,0-42.2,1-70.5,8.4c-113.7,29.9-287.8,97.1-318.9,145.8
		c-9.8,15.3,7.5,28.3,21.4,38.8c2.8,2.1,6.9,5.2,9.8,7.7c-22.2,14.4-18.2,31.1-15.6,41.3c1.1,4.6,1.8,7.7,1.3,10.3
		c-1.7,0.3-4.2,0.7-6.1,0.9c-10.5,1.3-28.1,3.5-36.6,20.1c-8.7,17.1-9.7,34-2.9,50.2c19.7,46.8,101.8,72.4,128.7,80.9
		c16.6,5.2,34.2,14.3,51.2,23.2c22.1,11.5,42.9,22.3,62.5,25.5c10.1,1.6,20.7,2.4,34.5,2.4c7.8,0,15.9-0.2,24.6-0.5
		c9.7-0.3,20-0.6,31.3-0.6c18.1,0,34.4,0.7,51.3,2.4c30.3,2.9,60.9,8.1,85.5,12.3c22.5,3.8,40.3,6.9,50.3,6.9c3,0,5.3-0.2,7.4-0.8
		c11.5-2.9,14.8-9.2,15.6-13.9c0.2-1.1,0.2-2.2,0.2-3.2c8,2.8,16.4,4.8,24.5,4.8c10.8,0,19.9-3.5,26.8-10.5c4.4-4.4,6.4-10,5.5-15.7
		c-2.2-14.1-20-23.7-48.7-38.3c-8.9-4.5-22.1-11.2-29.6-16.4c1.1,0,2.3,0,3.6,0l13.3,0.1c10.9,0,25.3-0.4,39.9-3.9
		c16.8-4,30.2-13.6,41-21.4c5.7-4.1,13.5-9.7,16.2-9.8c9.7,6.6,18.1,12.6,25.7,18.1c32.3,23.1,51.8,37.1,87.1,37.1
		c2,0,5.8,1.9,9.7,3.9c8.2,4.2,19.5,10,35.9,10c5,0,10.3-0.6,15.7-1.7c9.3-1.9,16.6-5,22.5-7.4c5.4-2.2,9.6-4,13.2-4
		c0.4,0,0.9,0,1,0c1.1,0.2,4.3,1.7,6.9,3c11.5,5.3,30.7,14.2,58,14.2c3.9,0,14.4,0,18-8.9c2.7-6.7-0.6-12.2-5-17
		c2.5,0.6,5.4,1,8.7,1c8,0,14.7-4.7,18-12.7C714.9-1702,710.6-1718.3,699.4-1729.4z M550.2-2115.5c21.9,0,39.8,17.8,39.8,39.8
		c0,21.9-17.8,39.8-39.8,39.8c-21.9,0-39.8-17.8-39.8-39.8C510.5-2097.7,528.3-2115.5,550.2-2115.5z M-44.2-1864.2
		c-8,0-14.5-6.5-14.5-14.5c0-8,6.5-14.5,14.5-14.5c8,0,14.5,6.5,14.5,14.5C-29.8-1870.7-36.3-1864.2-44.2-1864.2z M83.7-1860.2
		c-8,0-14.5-6.5-14.5-14.5c0-8,6.5-14.5,14.5-14.5c8,0,14.5,6.5,14.5,14.5C98.1-1866.6,91.7-1860.2,83.7-1860.2z M114.2-1942.2
		c-8,0-14.5-6.5-14.5-14.5s6.5-14.5,14.5-14.5s14.5,6.5,14.5,14.5C128.7-1948.7,122.2-1942.2,114.2-1942.2z M160.9-1728.2
		c-8,0-14.5-6.5-14.5-14.5c0-8,6.5-14.5,14.5-14.5c8,0,14.5,6.5,14.5,14.5C175.4-1734.7,168.9-1728.2,160.9-1728.2z M160.9-1868.2
		c-8,0-14.5-6.5-14.5-14.5c0-8,6.5-14.5,14.5-14.5c8,0,14.5,6.5,14.5,14.5C175.4-1874.7,168.9-1868.2,160.9-1868.2z M199.5-1987.3
		c0-8,6.5-14.5,14.5-14.5c8,0,14.5,6.5,14.5,14.5s-6.5,14.5-14.5,14.5C206-1972.8,199.5-1979.3,199.5-1987.3z M223.6-1916.5
		c-8,0-14.5-6.5-14.5-14.5c0-8,6.5-14.5,14.5-14.5c8,0,14.5,6.5,14.5,14.5S231.6-1916.5,223.6-1916.5z M283.4-1937.1
		c-8,0-14.5-6.5-14.5-14.5s6.5-14.5,14.5-14.5c8,0,14.5,6.5,14.5,14.5C297.9-1943.6,291.4-1937.1,283.4-1937.1z M357.7-1987.3
		c-8,0-14.5-6.5-14.5-14.5c0-8,6.5-14.5,14.5-14.5c8,0,14.5,6.5,14.5,14.5C372.2-1993.8,365.7-1987.3,357.7-1987.3z M408.7-1927.7
		c-8,0-14.5-6.5-14.5-14.5s6.5-14.5,14.5-14.5c8,0,14.5,6.5,14.5,14.5S416.6-1927.7,408.7-1927.7z M426.2-2026.3
		c-8,0-14.5-6.5-14.5-14.5s6.5-14.5,14.5-14.5c8,0,14.5,6.5,14.5,14.5C440.7-2032.8,434.2-2026.3,426.2-2026.3z"/>
	<circle class="st1" cx="550.2" cy="-2075.7" r="18.2"/>
</g>
</svg>
