<?xml version="1.0" encoding="utf-8"?>
<!-- Generator: Adobe Illustrator 24.2.1, SVG Export Plug-In . SVG Version: 6.00 Build 0)  -->
<svg version="1.1" id="Layer_1" xmlns="http://www.w3.org/2000/svg" xmlns:xlink="http://www.w3.org/1999/xlink" x="0px" y="0px"
	 viewBox="0 0 417.4 512" style="enable-background:new 0 0 417.4 512;" xml:space="preserve">
<style type="text/css">
	.st0{fill:#FFFFFF;}
</style>
<g>
	<g>
		<path class="st0" d="M352.1,244.5v47.4c0,71.8-58.4,130.2-130.2,130.2S91.6,363.7,91.6,291.9v-60.8h64.6v38.7l-30.8,23v61.9h77.3
			v-61.9l-30.8-23v-54.4H61.1v15.7h14.8v60.8c0,80.4,65.4,145.9,145.9,145.9c80.4,0,145.9-65.4,145.9-145.9v-47.4L352.1,244.5
			L352.1,244.5z M187,300.7v38.4h-46v-38.4l23-17.1L187,300.7z"/>
	</g>
</g>
<g>
	<g>
		<rect x="186.5" y="215.4" class="st0" width="195.4" height="15.7"/>
	</g>
</g>
<g>
	<g>
		<path class="st0" d="M26.2,451.5v15.7h21.7l38,44.9h271.9l38-44.9h21.7v-15.7H26.2z M350.5,496.3H93.2l-24.7-29.2h306.8
			L350.5,496.3z"/>
	</g>
</g>
<g>
	<g>
		<path class="st0" d="M288.3,55.5C269,33.5,232.5,0,190,0C127.4,0,78.5,71.7,76.4,74.8l-2.9,4.4l2.9,4.4
			c2.1,3.1,51,74.8,113.6,74.8c42.2,0,78.4-32.9,97.9-54.9l58.5,11.7V55.5H288.3z M330.7,96l-48.7-9.8l-3,3.5
			c-16.8,19.8-50.8,52.9-89,52.9c-46.1,0-86.1-48.5-97.4-63.5c11.3-15,51.3-63.5,97.4-63.5c38.1,0,72,33,88.8,52.7l2.3,2.7h49.5
			L330.7,96L330.7,96z"/>
	</g>
</g>
<g>
	<g>
		<polygon class="st0" points="199.6,71.3 167.8,39.5 156.7,50.6 177.4,71.3 127.2,71.3 127.2,87 207.7,87 188,106.8 199,117.9 
			229.9,87 265.5,87 265.5,71.3 		"/>
	</g>
</g>
<g>
	<g>
		<path class="st0" d="M58.5,191.7C26.2,191.7,0,218,0,250.2v24.2c0,32.2,26.2,58.5,58.5,58.5v-15.7c-23.6,0-42.8-19.2-42.8-42.8
			v-24.2c0-23.6,19.2-42.8,42.8-42.8h323.4v-15.7L58.5,191.7L58.5,191.7z"/>
	</g>
</g>
</svg>
