<?xml version="1.0" encoding="utf-8"?>
<!-- Generator: Adobe Illustrator 24.2.1, SVG Export Plug-In . SVG Version: 6.00 Build 0)  -->
<svg version="1.1" id="Layer_1" xmlns="http://www.w3.org/2000/svg" xmlns:xlink="http://www.w3.org/1999/xlink" x="0px" y="0px"
	 viewBox="0 0 48 48.2" style="enable-background:new 0 0 48 48.2;" xml:space="preserve">
<style type="text/css">
	.st0{fill:#FFFFFF;}
</style>
<path class="st0" d="M48,24.1c0,13.3-10.8,24.1-24,24.1S0,37.4,0,24.1S10.7,0,24,0S48,10.8,48,24.1z M15,13c-1.7,0-3,1.8-3,4
	s1.3,4,3,4c1.7,0,3-1.8,3-4S16.7,13,15,13z M33,13c-1.7,0-3,1.8-3,4s1.3,4,3,4s3-1.8,3-4S34.7,13,33,13z M9,27
	c0.6,7.6,6.2,14,14.9,14S38.4,34.6,39,27c-2.8,0-7.8,0-15,0S11.8,27,9,27z"/>
</svg>
