<?xml version="1.0" encoding="utf-8"?>
<!-- Generator: Adobe Illustrator 24.2.1, SVG Export Plug-In . SVG Version: 6.00 Build 0)  -->
<svg version="1.1" id="Layer_1" xmlns="http://www.w3.org/2000/svg" xmlns:xlink="http://www.w3.org/1999/xlink" x="0px" y="0px"
	 viewBox="0 0 512 478" style="enable-background:new 0 0 512 478;" xml:space="preserve">
<style type="text/css">
	.st0{fill:#FFFFFF;}
</style>
<g>
	<g>
		<path class="st0" d="M504.6,17.8c-5.4-5.4-12.7-8.2-21-8c-13.4,0.3-29.6,8.7-45,19.5c0.2-1.4,0.3-2.7,0.3-4
			c0.2-7.4-2.3-13.8-7.1-18.7c-5.5-5.5-12.7-7.6-20.5-6.2c-13.5,2.6-29.2,16.3-47.9,41.8c-13.6,18.5-25.5,39.2-29.9,49.2
			c-11.7,26.9-30.2,58.1-39.6,73.3l-7.5-7.5c-7.4-7.4-17.8-11.4-28.3-11c-10.5,0.5-20.4,5.4-27.1,13.5L6.9,429.4
			c-9.8,11.8-9.1,29,1.8,39.9c5.8,5.8,13.3,8.7,20.9,8.7c6.7,0,13.4-2.3,18.9-6.9l269.5-224.2c8.1-6.7,13-16.6,13.5-27.2
			c0.5-10.5-3.5-20.8-11-28.3l-9-9c17.6-10.9,57-34.6,91-49.3c12-5.2,36.9-19.6,59.2-35.9c30-22,46.8-41.1,49.8-56.7
			C513.2,31.9,510.8,24,504.6,17.8z M305,231.3L35.6,455.4c-3.7,3.1-9,2.8-12.4-0.6s-3.6-8.7-0.6-12.4l53.1-63.8l7.3,7.3
			c2,2,4.6,3,7.2,3s5.2-1,7.2-3c4-4,4-10.4,0-14.4l-8.7-8.7l22.7-27.3l11.7,11.7c2,2,4.6,3,7.2,3c2.6,0,5.2-1,7.2-3
			c4-4,4-10.4,0-14.4l-13-13l22-26.5l19.8,19.8c2,2,4.6,3,7.2,3s5.2-1,7.2-3c4-4,4-10.4,0-14.4l-21.1-21.1l20.6-24.8l24,24
			c2,2,4.6,3,7.2,3s5.2-1,7.2-3c4-4,4-10.4,0-14.4l-25.3-25.3l18.6-22.3l5.2,5.2c2,2,4.6,3,7.2,3s5.2-1,7.2-3c4-4,4-10.4,0-14.4
			L225,199l21.7-26.1c3.1-3.8,7.5-5.9,12.4-6.2c0.3,0,0.5,0,0.8,0c4.6,0,8.8,1.8,12.1,5l34.1,34.1c3.5,3.5,5.2,8,5,12.9
			C311,223.7,308.8,228.1,305,231.3z M352.2,99.6c3.3-7.5,14.3-27.1,27.6-45.3c21.4-29.2,32.4-33.3,35.3-33.8
			c0.4-0.1,0.7-0.1,0.9-0.1c0.7,0,1,0.3,1.4,0.7c0.4,0.4,1.2,1.2,1.2,3.8c-0.3,13.2-19.4,37.4-37,55.8l-10,10
			c-1.2,1.2-2.4,2.3-3.6,3.4c-0.1,0.1-0.2,0.2-0.3,0.3l-24.3,24.3C346.5,112.2,349.5,105.8,352.2,99.6z M491.4,36.9
			c-0.7,3.7-5.8,17.7-41.8,44c-22.4,16.4-45.8,29.5-55.2,33.6c-11.4,5-23.4,10.8-34.9,16.8l27.6-27.6c1.7-1.7,3.8-3.7,6.1-6.1
			l5.3-5.3c0.1-0.1,0.2-0.2,0.3-0.3C420.6,68.4,463,30.6,484,30.2c0.1,0,0.2,0,0.3,0c3.3,0,4.9,1.1,5.8,2.1
			C491.4,33.4,491.9,34.5,491.4,36.9z"/>
	</g>
</g>
<g>
	<g>
		<path class="st0" d="M258.9,232.8l-4.5-4.5c-4-4-10.4-4-14.4,0c-4,4-4,10.4,0,14.4l4.5,4.5c2,2,4.6,3,7.2,3s5.2-1,7.2-3
			C262.8,243.3,262.8,236.8,258.9,232.8z"/>
	</g>
</g>
</svg>
