<?xml version="1.0" encoding="utf-8"?>
<!-- Generator: Adobe Illustrator 24.2.1, SVG Export Plug-In . SVG Version: 6.00 Build 0)  -->
<svg version="1.1" id="Layer_1" xmlns="http://www.w3.org/2000/svg" xmlns:xlink="http://www.w3.org/1999/xlink" x="0px" y="0px"
	 viewBox="0 0 462.1 392.8" style="enable-background:new 0 0 462.1 392.8;" xml:space="preserve">
<style type="text/css">
	.st0{fill:#FFFFFF;}
</style>
<path class="st0" d="M408.8,0c-8.9,0-20.7,3.1-35,9.9c-103.6-7.2-228.7,7.9-312,34.1C1.4,16-8.6,43.5,18.9,80.1
	C-14.7,179.9,0,281.2,35.7,353.7c-11,47.6,17,45.5,41.2,26.5c170.8,9.1,281.8-16.5,349.9-68.7c24,19.2,41.7-6,31.9-36.9
	c11.9-71.8-9.1-167.3-36.1-233.8C435.9,17.4,430.6-0.1,408.8,0L408.8,0z M51.4,78c52.6,61,53.6,200.4,21.7,283.4
	C80.2,270.5,75.7,137.7,51.4,78L51.4,78z"/>
</svg>
