<?xml version="1.0" encoding="utf-8"?>
<!-- Generator: Adobe Illustrator 24.2.1, SVG Export Plug-In . SVG Version: 6.00 Build 0)  -->
<svg version="1.1" id="Capa_1" xmlns="http://www.w3.org/2000/svg" xmlns:xlink="http://www.w3.org/1999/xlink" x="0px" y="0px"
	 viewBox="0 0 452.7 398.5" style="enable-background:new 0 0 452.7 398.5;" xml:space="preserve">
<style type="text/css">
	.st0{fill:#FFFFFF;}
</style>
<g>
	<path class="st0" d="M53.1,105.3c0.2,0,0.5,0,0.7-0.1l83.3-12c6.5-0.9,13.1-1.4,19.7-1.4c12.5,0,24.9,1.7,36.9,5
		c2.7,0.7,5.4-0.8,6.2-3.5s-0.8-5.4-3.5-6.2c-12.9-3.6-26.2-5.4-39.5-5.4c-7.1,0-14.2,0.5-21.1,1.5l-83.3,12
		c-2.7,0.4-4.6,2.9-4.2,5.7C48.5,103.5,50.7,105.3,53.1,105.3z"/>
	<path class="st0" d="M258.9,96.9c18.5-5.1,37.5-6.3,56.6-3.6l83.3,12c0.2,0,0.5,0.1,0.7,0.1c2.4,0,4.6-1.8,4.9-4.3
		c0.4-2.7-1.5-5.3-4.2-5.7l-83.3-12c-20.4-2.9-40.8-1.6-60.6,3.9c-2.7,0.7-4.2,3.5-3.5,6.2C253.5,96.1,256.3,97.7,258.9,96.9z"/>
	<path class="st0" d="M53.1,139.7c0.2,0,0.5,0,0.7-0.1l83.3-12c6.5-0.9,13.1-1.4,19.7-1.4c12.5,0,24.9,1.7,36.9,5
		c2.7,0.7,5.4-0.8,6.2-3.5s-0.8-5.4-3.5-6.2c-12.9-3.6-26.2-5.4-39.5-5.4c-7.1,0-14.2,0.5-21.1,1.5l-83.3,12
		c-2.7,0.4-4.6,2.9-4.2,5.7C48.5,137.9,50.7,139.7,53.1,139.7z"/>
	<path class="st0" d="M258.9,131.3c18.5-5.1,37.5-6.3,56.6-3.6l83.3,12c0.2,0,0.5,0.1,0.7,0.1c2.4,0,4.6-1.8,4.9-4.3
		c0.4-2.7-1.5-5.3-4.2-5.7l-83.3-12c-20.4-2.9-40.8-1.6-60.6,3.9c-2.7,0.7-4.2,3.5-3.5,6.2C253.5,130.5,256.3,132,258.9,131.3z"/>
	<path class="st0" d="M53.1,174.1c0.2,0,0.5,0,0.7-0.1l83.3-12c6.5-0.9,13.1-1.4,19.7-1.4c12.5,0,24.9,1.7,36.9,5
		c2.7,0.7,5.4-0.8,6.2-3.5s-0.8-5.4-3.5-6.2c-12.9-3.6-26.2-5.4-39.5-5.4c-7.1,0-14.2,0.5-21.1,1.5l-83.3,12
		c-2.7,0.4-4.6,2.9-4.2,5.7C48.5,172.3,50.7,174.1,53.1,174.1z"/>
	<path class="st0" d="M258.9,165.6c18.5-5.1,37.5-6.3,56.6-3.6l83.3,12c0.2,0,0.5,0.1,0.7,0.1c2.4,0,4.6-1.8,4.9-4.3
		c0.4-2.7-1.5-5.3-4.2-5.7l-83.3-12c-20.4-2.9-40.8-1.6-60.6,3.9c-2.7,0.7-4.2,3.5-3.5,6.2C253.5,164.8,256.3,166.4,258.9,165.6z"/>
	<path class="st0" d="M53.1,208.4c0.2,0,0.5,0,0.7-0.1l83.3-12c6.5-0.9,13.1-1.4,19.7-1.4c12.5,0,24.9,1.7,36.9,5
		c2.7,0.7,5.4-0.8,6.2-3.5s-0.8-5.4-3.5-6.2c-12.9-3.6-26.2-5.4-39.5-5.4c-7.1,0-14.2,0.5-21.1,1.5l-83.3,12
		c-2.7,0.4-4.6,2.9-4.2,5.7C48.5,206.6,50.7,208.4,53.1,208.4z"/>
	<path class="st0" d="M258.9,200c18.5-5.1,37.5-6.3,56.6-3.6l83.3,12c0.2,0,0.5,0.1,0.7,0.1c2.4,0,4.6-1.8,4.9-4.3
		c0.4-2.7-1.5-5.3-4.2-5.7l-83.3-12c-20.4-2.9-40.8-1.6-60.6,3.9c-2.7,0.7-4.2,3.5-3.5,6.2C253.5,199.2,256.3,200.7,258.9,200z"/>
	<path class="st0" d="M53.1,242.8c0.2,0,0.5,0,0.7-0.1l83.3-12c6.5-0.9,13.1-1.4,19.7-1.4c12.5,0,24.9,1.7,36.9,5
		c2.7,0.7,5.4-0.8,6.2-3.5c0.7-2.7-0.8-5.4-3.5-6.2c-12.9-3.6-26.2-5.4-39.5-5.4c-7.1,0-14.2,0.5-21.1,1.5l-83.3,12
		c-2.7,0.4-4.6,2.9-4.2,5.7C48.5,241,50.7,242.8,53.1,242.8z"/>
	<path class="st0" d="M258.9,234.4c18.5-5.1,37.5-6.3,56.6-3.6l83.3,12c0.2,0,0.5,0.1,0.7,0.1c2.4,0,4.6-1.8,4.9-4.3
		c0.4-2.7-1.5-5.3-4.2-5.7l-83.3-12c-20.4-2.9-40.8-1.6-60.6,3.9c-2.7,0.7-4.2,3.5-3.5,6.2C253.5,233.5,256.3,235.1,258.9,234.4z"/>
	<path class="st0" d="M53.1,277.2c0.2,0,0.5,0,0.7-0.1l83.3-12c6.5-0.9,13.1-1.4,19.7-1.4c12.5,0,24.9,1.7,36.9,5
		c2.7,0.7,5.4-0.8,6.2-3.5s-0.8-5.4-3.5-6.2c-12.9-3.6-26.2-5.4-39.5-5.4c-7.1,0-14.2,0.5-21.1,1.5l-83.3,12
		c-2.7,0.4-4.6,2.9-4.2,5.7C48.5,275.4,50.7,277.2,53.1,277.2z"/>
	<path class="st0" d="M258.9,268.7c18.5-5.1,37.5-6.3,56.6-3.6l83.3,12c0.2,0,0.5,0.1,0.7,0.1c2.4,0,4.6-1.8,4.9-4.3
		c0.4-2.7-1.5-5.3-4.2-5.7l-83.3-12c-20.4-2.9-40.8-1.6-60.6,3.9c-2.7,0.7-4.2,3.5-3.5,6.2C253.5,267.9,256.3,269.5,258.9,268.7z"/>
	<path class="st0" d="M156.9,298.1c12.5,0,24.9,1.7,36.9,5c2.7,0.7,5.4-0.8,6.2-3.5s-0.8-5.4-3.5-6.2c-12.9-3.6-26.2-5.4-39.5-5.4
		c-7.1,0-14.2,0.5-21.1,1.5l-83.3,12c-2.7,0.4-4.6,2.9-4.2,5.7c0.4,2.5,2.5,4.3,4.9,4.3c0.2,0,0.5,0,0.7-0.1l83.3-12
		C143.6,298.6,150.3,298.1,156.9,298.1z"/>
	<path class="st0" d="M400.2,301.6l-83.3-12c-20.4-2.9-40.8-1.6-60.6,3.9c-2.7,0.7-4.2,3.5-3.5,6.2c0.7,2.7,3.5,4.2,6.2,3.5
		c18.5-5.1,37.5-6.3,56.6-3.6l83.3,12c0.2,0,0.5,0.1,0.7,0.1c2.4,0,4.6-1.8,4.9-4.3C404.9,304.5,403,302,400.2,301.6z"/>
	<path class="st0" d="M447.7,90.5h-11.8v-24c0-2.5-1.8-4.6-4.3-4.9L316.9,45.1c-7-1-14-1.5-21.1-1.5V5c0-1.9-1.1-3.6-2.7-4.5
		c-1.7-0.9-3.7-0.7-5.2,0.4l-13.6,9.9L260.8,1c-1.5-1.1-3.5-1.3-5.2-0.4c-1.7,0.9-2.7,2.6-2.7,4.5v45c-9.1,2.8-18,6.4-26.5,10.9
		c-27.6-14.6-59.7-20.2-90.6-15.7L21,61.6c-2.5,0.4-4.3,2.5-4.3,4.9v24H5c-2.8,0-5,2.2-5,5v298c0,1.4,0.6,2.7,1.6,3.7
		c0.9,0.9,2.1,1.3,3.4,1.3c0.1,0,0.2,0,0.4,0l200.5-14.7h41l200.5,14.7c0.1,0,0.2,0,0.4,0c1.3,0,2.5-0.5,3.4-1.3
		c1-0.9,1.6-2.3,1.6-3.7v-298C452.7,92.7,450.4,90.5,447.7,90.5z M315.5,55l110.4,15.9v275.2l-109-15.7
		c-29.1-4.2-59.1,0.5-85.6,13.2V69.5C257,56,286.8,50.8,315.5,55z M40.9,354.1l96.3-13.8c28.7-4.1,58.5,1,84.2,14.5v5.6
		c-15.6-7.1-33.3-10.6-53.7-10.6c-9.9,0-20.3,0.8-32,2.5l-94.8,15.5V354.1z M210.7,366.8c4.6,1.7,9,3.7,13.2,6.1
		c1.5,0.8,3.3,0.8,4.8,0c4.2-2.3,8.6-4.4,13.2-6.1v7h-31.3L210.7,366.8L210.7,366.8z M231.3,360.4v-5.6
		c25.7-13.5,55.4-18.6,84.2-14.5l96.3,13.8v13.7l-94.9-15.5C281.9,347.3,254.5,349.8,231.3,360.4z M262.8,14.8l8.6,6.2
		c1.8,1.3,4.1,1.3,5.9,0l8.6-6.2v29.1c-7.7,0.5-15.4,1.7-23,3.4L262.8,14.8L262.8,14.8z M26.8,70.8L137.2,55
		c28.7-4.1,58.5,1,84.2,14.5v274.2c-20.1-9.7-42.4-14.7-64.7-14.7c-7,0-14,0.5-20.9,1.5l-109,15.7C26.8,346.1,26.8,70.8,26.8,70.8z
		 M10,388.1V100.5h6.8v251.3c0,1.5,0.6,2.8,1.7,3.8c1.1,0.9,2.6,1.4,4,1.2l8.4-1.2v18.1c0,1.5,0.6,2.9,1.8,3.8s2.6,1.4,4,1.1
		l100.5-16.5c11.1-1.6,21-2.4,30.4-2.4c12,0,23,1.3,33,3.9v10.5L10,388.1z M442.7,388.1L252,374.2v-10.5c17.9-4.6,38.6-5.1,63.4-1.5
		L416,378.6c0.3,0,0.5,0.1,0.8,0.1c1.2,0,2.3-0.4,3.2-1.2c1.1-1,1.8-2.3,1.8-3.8v-18.1l8.4,1.2c0.2,0,0.5,0.1,0.7,0.1
		c1.2,0,2.4-0.4,3.3-1.2c1.1-1,1.7-2.3,1.7-3.8V100.5h6.8L442.7,388.1L442.7,388.1z"/>
</g>
</svg>
