<?xml version="1.0" encoding="utf-8"?>
<!-- Generator: Adobe Illustrator 24.2.1, SVG Export Plug-In . SVG Version: 6.00 Build 0)  -->
<svg version="1.1" id="Layer_1" xmlns="http://www.w3.org/2000/svg" xmlns:xlink="http://www.w3.org/1999/xlink" x="0px" y="0px"
	 viewBox="0 0 52 37.9" style="enable-background:new 0 0 52 37.9;" xml:space="preserve">
<style type="text/css">
	.st0{fill:#FFFFFF;}
</style>
<g>
	<path class="st0" d="M15.9,21c-1.4-2.1-2.1-4.5-2.1-7.2c0-4.6,1.9-8.4,4.9-10.7c-1-1.8-3-3.1-5.6-3.1C8.7,0,6.2,3.6,6.2,7.7
		c0,2.2,0.7,4.1,2.2,5.4c0.8,0.8,1.5,1.8,1.5,2.8S9.5,17.9,7,19c-3.6,1.6-6.9,3.8-7,7.1C0.1,28.3,1.5,30,3.6,30h3.3
		c0.5,0,1-0.3,1.3-0.8c1.6-2.9,4.6-4.7,7.1-6C16.2,22.8,16.4,21.7,15.9,21z"/>
	<path class="st0" d="M45.1,19c-2.5-1.1-2.9-2-2.9-3.1s0.7-2.1,1.5-2.8c1.5-1.4,2.2-3.2,2.2-5.4C45.9,3.6,43.5,0,39,0
		c-2.6,0-4.6,1.3-5.7,3.1c3,2.3,4.9,6.1,4.9,10.7c0,2.7-0.7,5.1-2.1,7.2c-0.5,0.8-0.2,1.8,0.6,2.2c2.5,1.2,5.5,3.1,7.1,6
		c0.3,0.5,0.8,0.8,1.3,0.8h3.3c2.1,0,3.5-1.7,3.5-3.9C52,22.8,48.7,20.6,45.1,19z"/>
	<path class="st0" d="M32.7,26.3c-2.7-1.2-3.2-2.3-3.2-3.4c0-1.2,0.8-2.3,1.7-3.1c1.6-1.5,2.5-3.6,2.5-6c0-4.5-2.7-8.4-7.6-8.4
		s-7.6,3.9-7.6,8.4c0,2.4,0.9,4.5,2.5,6c0.9,0.9,1.7,2,1.7,3.1c0,1.2-0.4,2.2-3.2,3.4c-4,1.7-7.8,3.6-7.9,7.2c0,2.4,1.8,4.4,4.1,4.4
		h10.4h10.4c2.3,0,4.1-2,4.1-4.4C40.5,30,36.7,28.1,32.7,26.3z"/>
</g>
</svg>
