<?xml version="1.0" encoding="utf-8"?>
<!-- Generator: Adobe Illustrator 24.2.1, SVG Export Plug-In . SVG Version: 6.00 Build 0)  -->
<svg version="1.1" id="Layer_1" xmlns="http://www.w3.org/2000/svg" xmlns:xlink="http://www.w3.org/1999/xlink" x="0px" y="0px"
	 viewBox="0 0 48 40" style="enable-background:new 0 0 48 40;" xml:space="preserve">
<style type="text/css">
	.st0{fill:#FFFFFF;}
</style>
<path class="st0" d="M38.9,18c-0.9,7.9-7.4,13-12.9,13H14C8,31,1,25,1,16c0-4.7,0-9.3,0-14l0,0c0-1.1,0.9-2,2-2l0,0h34h5
	c3.3,0,6,2.7,6,6v6c0,3.3-2.7,6-6,6H38.9z M37,0L37,0z M38.6,34c0.7,0,1.4,0.7,1.4,1.4v0.1c0,2.5-2,4.5-4.4,4.5H4.4
	C2,40,0,38,0,35.5v-0.1C0,34.7,0.7,34,1.4,34H38.6z M39,5v8h2c1.1,0,2-0.9,2-2V7c0-1.1-0.9-2-2-2H39z"/>
</svg>
