<?xml version="1.0" encoding="utf-8"?>
<!-- Generator: Adobe Illustrator 24.2.1, SVG Export Plug-In . SVG Version: 6.00 Build 0)  -->
<svg version="1.1" id="_24x24_On_Light_Insights" xmlns="http://www.w3.org/2000/svg" xmlns:xlink="http://www.w3.org/1999/xlink"
	 x="0px" y="0px" viewBox="0 0 19.5 17.5" style="enable-background:new 0 0 19.5 17.5;" xml:space="preserve">
<style type="text/css">
	.st0{fill:none;}
	.st1{fill:#FFFFFF;}
</style>
<rect id="view-box" x="-2.3" y="-3.3" class="st0" width="24" height="24"/>
<path id="Shape" class="st1" d="M12.8,1.5c1.2,0,2.3,1,2.3,2.3v9h1.5v-9c0-2.1-1.7-3.8-3.8-3.8h-10C2.3,0,2,0.3,2,0.8
	s0.3,0.8,0.8,0.8C3.7,1.5,4,1.8,4,2.8v11c0,2.1,1.7,3.8,3.8,3.8l0,0h8V16h-8c-1.2,0-2.3-1-2.3-2.3v-11c0-0.4-0.1-0.9-0.2-1.3H12.8z"
	/>
<path id="Shape-2" class="st1" d="M7.8,17.5c1.2,0.1,2.3-0.5,3-1.5h-3c1.6,0,2.2-1,2.2-3.3c0-0.4,0.3-0.8,0.8-0.8h8
	c0.4,0,0.7,0.3,0.8,0.8v1c0,2.1-1.7,3.7-3.8,3.8L7.8,17.5z M10.7,16h5c1.2,0,2.2-1,2.3-2.3v-0.2h-6.5C11.4,14.4,11.2,15.2,10.7,16z
	 M7,16.8C7,16.4,7.3,16,7.7,16c0,0,0,0,0.1,0l0,0v1.5C7.4,17.5,7,17.2,7,16.8C7,16.8,7,16.8,7,16.8z M0.8,5.5C0.3,5.5,0,5.2,0,4.8
	v-2C0,1.2,1.2,0,2.8,0s2.8,1.2,2.8,2.8v2c0,0.4-0.3,0.7-0.8,0.8H0.8z M1.5,2.8V4H4V2.8c0-0.7-0.6-1.3-1.3-1.3S1.5,2.1,1.5,2.8z"/>
</svg>
