<?xml version="1.0" encoding="utf-8"?>
<!-- Generator: Adobe Illustrator 24.2.1, SVG Export Plug-In . SVG Version: 6.00 Build 0)  -->
<svg version="1.1" id="Layer_1" xmlns="http://www.w3.org/2000/svg" xmlns:xlink="http://www.w3.org/1999/xlink" x="0px" y="0px"
	 viewBox="0 0 48 48" style="enable-background:new 0 0 48 48;" xml:space="preserve">
<style type="text/css">
	.st0{fill:#FFFFFF;}
</style>
<path class="st0" d="M24,0C10.7,0,0,10.7,0,24s10.7,24,24,24s24-10.7,24-24S37.3,0,24,0z M24,12.1c1.7,0,3,1.3,3,3s-1.3,3-3,3
	s-3-1.3-3-3S22.3,12.1,24,12.1z M29,33.1c0,0.5-0.4,0.9-1,0.9h-3c-0.4,0-3,0-3,0h-2c-0.5,0-1-0.3-1-0.9v-2c0-0.5,0.4-1.1,1-1.1l0,0
	c0.5,0,1-0.3,1-0.9v-4c0-0.5-0.4-1.1-1-1.1l0,0c-0.5,0-1-0.3-1-0.9v-2c0-0.5,0.4-1.1,1-1.1h6c0.5,0,1,0.5,1,1.1v8
	c0,0.5,0.4,0.9,1,0.9l0,0c0.5,0,1,0.5,1,1.1V33.1z"/>
</svg>
