<?xml version="1.0" encoding="utf-8"?>
<!-- Generator: Adobe Illustrator 24.2.1, SVG Export Plug-In . SVG Version: 6.00 Build 0)  -->
<svg version="1.1" id="Capa_1" xmlns="http://www.w3.org/2000/svg" xmlns:xlink="http://www.w3.org/1999/xlink" x="0px" y="0px"
	 viewBox="0 0 13 15.2" style="enable-background:new 0 0 13 15.2;" xml:space="preserve">
<style type="text/css">
	.st0{fill:#FFFFFF;}
</style>
<g>
	<path class="st0" d="M10.6,10.8C10.6,10.8,10.5,10.8,10.6,10.8L6.9,1.2l0,0c0,0,0.1,0,0.1,0c0.3,0,0.6,0.1,0.8,0.5
		C8.2,2.8,9,2.8,9,2.8S8.2,2.6,8,1.7C7.9,1.3,7.6,1,7.6,1C7.4,0.9,7.2,0.8,7,0.8c0,0-0.1,0-0.1,0c0,0,0,0,0.1-0.1
		c0.2-0.1,0.5-0.1,0.7,0.1c0.2,0.3,0.4,0.4,0.6,0.5c0.4,0.7,1,0.7,1,0.7S8.8,1.9,8.5,1.4c0.3,0.1,0.4,0,0.4,0s-0.2,0-0.5-0.1
		C8.4,1.2,8.3,1.1,8.3,0.9C8.1,0.4,7.8,0.2,7.8,0.2C7.6,0.1,7.5,0,7.2,0C7,0,6.7,0.2,6.6,0.3c0,0-0.1,0.1-0.1,0.1
		C6.5,0.6,6.1,1.3,6.1,1.3S6,1.5,6,1.6c0,0,0,0,0,0.1C5.4,3.1,3.4,8,2.3,10.8c-0.9,0.4-2.5,1.3-2.3,2.4c0.2,0.9,1.1,1.7,6.8,1.9
		c0.1,0,0.2,0,0.4,0c2.2,0,5.4-0.2,5.8-1.7C13.3,12.4,11.9,11.5,10.6,10.8z M7.1,0.3c0,0,0.1,0,0.1,0c0.3,0,0.6,0.1,0.8,0.5
		C8.1,1,8.2,1.1,8.2,1.3C8.1,1.2,8,1.1,7.9,0.9C7.7,0.6,7.3,0.5,7.3,0.5c-0.1,0-0.3,0-0.4,0L7.1,0.3z M6.7,14
		c-4.9,0.1-5.5-1-5.6-1.2c0.1-0.1,0.3-0.3,0.6-0.5c0,0.1-0.1,0.2-0.1,0.3c-0.1,0.7,8.6,1.5,9.6,0l-0.1-0.3c0.6,0.4,0.6,0.6,0.6,0.6
		C11.6,13.4,9.8,13.9,6.7,14z"/>
</g>
</svg>
