<?xml version="1.0" encoding="utf-8"?>
<!-- Generator: Adobe Illustrator 24.2.1, SVG Export Plug-In . SVG Version: 6.00 Build 0)  -->
<svg version="1.1" id="Layer_1" xmlns="http://www.w3.org/2000/svg" xmlns:xlink="http://www.w3.org/1999/xlink" x="0px" y="0px"
	 viewBox="0 0 48 48" style="enable-background:new 0 0 48 48;" xml:space="preserve">
<style type="text/css">
	.st0{fill:#FFFFFF;}
</style>
<g>
	<path class="st0" d="M47,25h-5v22c0,0.6-0.4,1-1,1H31c-0.6,0-1-0.4-1-1V30H18v17c0,0.6-0.4,1-1,1H7c-0.6,0-1-0.4-1-1V25H1
		c-0.4,0-0.8-0.2-0.9-0.6C-0.1,24,0,23.6,0.3,23.3l23-23c0.4-0.4,1.1-0.4,1.4,0l23,23c0.3,0.3,0.3,0.7,0.2,1.1S47.4,25,47,25z"/>
</g>
</svg>
