<?xml version="1.0" encoding="utf-8"?>
<!-- Generator: Adobe Illustrator 24.2.1, SVG Export Plug-In . SVG Version: 6.00 Build 0)  -->
<svg version="1.1" id="Layer_1" xmlns="http://www.w3.org/2000/svg" xmlns:xlink="http://www.w3.org/1999/xlink" x="0px" y="0px"
	 viewBox="0 0 6592.8 4230" style="enable-background:new 0 0 6592.8 4230;" xml:space="preserve">
<style type="text/css">
	.st0{fill:#FFFFFF;}
</style>
<g id="bff7c97a-ef0a-4f82-9a61-a88dbf8cd977" transform="matrix(4.535147222295708,0,0,4.535147222295708,6583.575703379253,2071.9111682722214)">
	<path class="st0" d="M8,3.8v1H4.8V13H3.7V4.8H0.4v-1H8z M12.9,5.9L12.9,5.9c0.8,0,1.4,0.2,2,0.7l0,0l0,0c0.5,0.5,0.8,1.1,0.8,2l0,0
		V13h-1.1V8.9l0,0c0-0.7-0.2-1.3-0.5-1.6l0,0l0,0c-0.3-0.3-0.7-0.5-1.3-0.5l0,0l0,0c-0.4,0-0.7,0.1-1.1,0.3l0,0l0,0
		c-0.3,0.2-0.6,0.4-0.8,0.8l0,0l0,0c-0.2,0.4-0.3,0.8-0.3,1.4l0,0V13H9.5V2.8h1.1v4.3l0,0c0.2-0.4,0.5-0.7,0.9-0.9l0,0l0,0
		C11.9,6,12.4,5.9,12.9,5.9L12.9,5.9z M24.1,9.2L24.1,9.2c0,0.3,0,0.5-0.1,0.8l0,0h-5.3l0,0c0.1,0.7,0.3,1.3,0.7,1.7l0,0l0,0
		c0.4,0.4,0.9,0.6,1.6,0.6l0,0l0,0c0.5,0,0.9-0.1,1.3-0.3l0,0l0,0c0.3-0.2,0.6-0.4,0.7-0.8l0,0l0.9,0.5l0,0
		c-0.3,0.5-0.7,0.9-1.1,1.1l0,0l0,0c-0.5,0.3-1.1,0.4-1.8,0.4l0,0l0,0c-1.1,0-1.9-0.3-2.5-1l0,0l0,0c-0.6-0.6-0.9-1.5-0.9-2.7l0,0
		l0,0c0-1.1,0.3-2,0.9-2.7l0,0l0,0c0.6-0.6,1.4-1,2.4-1l0,0l0,0c0.7,0,1.2,0.1,1.7,0.4l0,0l0,0c0.5,0.3,0.8,0.7,1.1,1.2l0,0l0,0
		C24,8,24.1,8.5,24.1,9.2L24.1,9.2z M21,6.9L21,6.9c-0.6,0-1.1,0.2-1.5,0.5l0,0l0,0c-0.4,0.4-0.6,0.9-0.7,1.5l0,0h4.2l0,0
		c-0.1-0.7-0.3-1.2-0.6-1.5l0,0l0,0C22.1,7,21.6,6.9,21,6.9L21,6.9z M37.7,4.8h-5.3v3h4.2v1h-4.2V13h-1.1V3.8h6.5V4.8z M42.3,5.9
		L42.3,5.9c0.3,0,0.6,0,0.8,0.1l0,0l-0.2,1.1l0,0C42.6,7,42.4,6.9,42,6.9l0,0l0,0c-0.3,0-0.6,0.1-0.9,0.3l0,0l0,0
		c-0.3,0.2-0.5,0.4-0.7,0.8l0,0l0,0c-0.2,0.4-0.3,0.8-0.3,1.3l0,0V13H39V6h0.9l0.2,1.2l0,0C40.5,6.3,41.2,5.9,42.3,5.9L42.3,5.9z
		 M47.5,5.9L47.5,5.9c1.1,0,1.9,0.3,2.5,1l0,0l0,0c0.6,0.6,0.9,1.5,0.9,2.7l0,0l0,0c0,1.1-0.3,2-0.9,2.7l0,0l0,0
		c-0.6,0.6-1.4,1-2.5,1l0,0l0,0c-1.1,0-1.9-0.3-2.5-1l0,0l0,0c-0.6-0.6-0.9-1.5-0.9-2.7l0,0l0,0c0-1.1,0.3-2,0.9-2.7l0,0l0,0
		C45.6,6.2,46.4,5.9,47.5,5.9L47.5,5.9z M47.5,6.9L47.5,6.9c-0.7,0-1.3,0.2-1.7,0.7l0,0l0,0c-0.4,0.5-0.6,1.1-0.6,2l0,0l0,0
		c0,0.8,0.2,1.5,0.6,2l0,0l0,0c0.4,0.5,1,0.7,1.7,0.7l0,0l0,0c0.7,0,1.3-0.2,1.7-0.7l0,0l0,0c0.4-0.5,0.6-1.1,0.6-2l0,0l0,0
		c0-0.8-0.2-1.5-0.6-2l0,0l0,0C48.7,7.1,48.2,6.9,47.5,6.9L47.5,6.9z M56.9,12.1L56.9,12.1c0.7,0,1.2,0.1,1.6,0.5l0,0l0,0
		c0.4,0.3,0.6,0.7,0.6,1.2l0,0l0,0c0,0.4-0.2,0.8-0.5,1.2l0,0l0,0c-0.3,0.3-0.7,0.6-1.3,0.8l0,0l0,0c-0.5,0.2-1.1,0.3-1.7,0.3l0,0
		l0,0c-1.1,0-1.9-0.2-2.4-0.5l0,0l0,0c-0.5-0.3-0.8-0.8-0.8-1.3l0,0l0,0c0-0.3,0.1-0.6,0.3-0.8l0,0l0,0c0.2-0.2,0.5-0.4,0.9-0.5l0,0
		l0,0c-0.3-0.1-0.5-0.3-0.7-0.5l0,0l0,0c-0.2-0.2-0.3-0.5-0.3-0.8l0,0l0,0c0-0.3,0.1-0.6,0.3-0.9l0,0l0,0c0.2-0.2,0.4-0.4,0.8-0.5
		l0,0l0,0c-0.3-0.2-0.6-0.5-0.8-0.8l0,0l0,0c-0.2-0.3-0.3-0.7-0.3-1.1l0,0l0,0c0-0.5,0.1-0.9,0.4-1.2l0,0l0,0c0.2-0.4,0.6-0.6,1-0.8
		l0,0l0,0C54.5,6,55,5.9,55.5,5.9l0,0l0,0c0.5,0,1,0.1,1.4,0.3l0,0l0,0c0.3-1,0.9-1.4,2-1.4l0,0l0.3,1l0,0c-0.9,0-1.5,0.3-1.7,0.8
		l0,0l0,0C57.8,6.7,58,7,58.2,7.3l0,0l0,0c0.2,0.3,0.2,0.6,0.2,1l0,0l0,0c0,0.5-0.1,0.9-0.4,1.2l0,0l0,0c-0.2,0.4-0.6,0.6-1,0.8l0,0
		l0,0c-0.4,0.2-0.9,0.3-1.5,0.3l0,0l0,0c-0.4,0-0.8,0-1.1-0.1l0,0l0,0c-0.3,0.1-0.5,0.2-0.6,0.3l0,0l0,0c-0.1,0.1-0.2,0.3-0.2,0.6
		l0,0l0,0c0,0.2,0.1,0.4,0.3,0.6l0,0l0,0c0.2,0.1,0.4,0.2,0.7,0.2l0,0H56.9z M55.5,6.8L55.5,6.8c-0.5,0-0.9,0.1-1.2,0.4l0,0l0,0
		c-0.3,0.3-0.5,0.6-0.5,1l0,0l0,0c0,0.4,0.2,0.8,0.5,1.1l0,0l0,0c0.3,0.3,0.7,0.4,1.2,0.4l0,0l0,0c0.5,0,0.9-0.1,1.2-0.4l0,0l0,0
		c0.3-0.3,0.5-0.6,0.5-1.1l0,0l0,0c0-0.4-0.2-0.8-0.5-1l0,0l0,0C56.4,6.9,56,6.8,55.5,6.8L55.5,6.8z M55.7,15.1L55.7,15.1
		c0.7,0,1.3-0.1,1.7-0.3l0,0l0,0c0.4-0.2,0.6-0.5,0.6-0.8l0,0l0,0c0-0.3-0.1-0.5-0.3-0.6l0,0l0,0c-0.2-0.1-0.6-0.2-1.1-0.2l0,0h-1.9
		l0,0c-0.4,0-0.8,0.1-1,0.2l0,0l0,0c-0.2,0.2-0.3,0.4-0.3,0.6l0,0l0,0c0,0.4,0.2,0.6,0.6,0.8l0,0l0,0C54.4,15,55,15.1,55.7,15.1
		L55.7,15.1z M73.1,10.6L73.1,10.6c-0.3,0.8-0.8,1.4-1.4,1.8l0,0l0,0c-0.7,0.4-1.4,0.7-2.3,0.7l0,0l0,0c-0.9,0-1.6-0.2-2.3-0.6l0,0
		l0,0c-0.6-0.4-1.1-0.9-1.5-1.7l0,0l0,0c-0.3-0.7-0.5-1.6-0.5-2.5l0,0l0,0c0-1,0.2-1.8,0.5-2.5l0,0l0,0c0.4-0.7,0.8-1.3,1.5-1.7l0,0
		l0,0c0.6-0.4,1.4-0.6,2.2-0.6l0,0l0,0c0.9,0,1.6,0.2,2.2,0.5l0,0l0,0c0.6,0.4,1,0.9,1.3,1.6l0,0l-1.1,0.5l0,0
		c-0.2-0.5-0.5-0.9-0.9-1.2l0,0l0,0c-0.4-0.3-0.9-0.4-1.5-0.4l0,0l0,0c-0.6,0-1.2,0.1-1.7,0.4l0,0l0,0c-0.5,0.3-0.8,0.7-1.1,1.3l0,0
		l0,0c-0.3,0.6-0.4,1.2-0.4,2l0,0l0,0c0,1.2,0.3,2.1,0.8,2.7l0,0l0,0c0.6,0.7,1.3,1,2.3,1l0,0l0,0c0.6,0,1.2-0.2,1.6-0.5l0,0l0,0
		c0.5-0.3,0.8-0.8,1-1.4l0,0L73.1,10.6z M80,6h1.1v7h-1L80.1,12l0,0c-0.5,0.8-1.3,1.2-2.5,1.2l0,0l0,0c-0.8,0-1.4-0.2-1.9-0.6l0,0
		l0,0c-0.5-0.4-0.7-1.1-0.7-1.9l0,0V6h1.1v4.3l0,0c0,0.7,0.1,1.2,0.4,1.4l0,0l0,0c0.3,0.3,0.7,0.4,1.2,0.4l0,0l0,0
		c0.6,0,1.2-0.2,1.6-0.6l0,0l0,0c0.4-0.4,0.6-1,0.6-1.8l0,0V6z M84.8,2.8v8.3l0,0c0,0.4,0.1,0.6,0.2,0.7l0,0l0,0
		c0.1,0.1,0.3,0.2,0.6,0.2l0,0l0,0c0.2,0,0.4,0,0.5,0l0,0l0,0c0.1,0,0.3-0.1,0.5-0.1l0,0L86.4,13l0,0c-0.3,0.1-0.7,0.2-1,0.2l0,0
		l0,0c-0.6,0-1-0.2-1.3-0.5l0,0l0,0c-0.3-0.3-0.4-0.8-0.4-1.4l0,0V2.8H84.8z M91.6,11.6l0.4,0.9l0,0c-0.5,0.4-1.1,0.6-1.8,0.6l0,0
		l0,0c-0.6,0-1-0.2-1.4-0.5l0,0l0,0c-0.4-0.3-0.5-0.8-0.6-1.4l0,0V7h-1.4V6h1.4V4.3L89.4,4v2H92v1h-2.6v4.1l0,0
		c0,0.3,0.1,0.6,0.3,0.8l0,0l0,0c0.2,0.2,0.4,0.3,0.8,0.3l0,0l0,0C90.9,12.1,91.3,11.9,91.6,11.6L91.6,11.6z"/>
</g>
<g id="a74e6b96-c5d3-4308-97ac-cb58efa3ef62" transform="matrix(6.855021837022569,0,0,6.855021837022569,-3304.1927617840674,-1544.6011722834469)">
	<path class="st0" d="M1427.3,709.5c-6.3-6.3-12.5-9.3-18.9-9.3c-5.5,0-9.7,2.2-13.1,3.9c-2.8,1.4-4.4,2.2-5.5,2.5
		c-0.7-0.5-2.4-2.8-3.4-4.3c-3.7-5.3-10-14.1-22.2-14.1c-7.2,0-14.7,2.9-22.6,6.1c-8.7,3.4-18.4,7.3-28,7.3
		c-33.2,0-66.5-38.8-91.7-72.3c-0.5-4.5,16.1-18.2,31-20.2c2.7-0.4,3.8,0.1,8,4c3.6,3.4,9.1,8.6,17.5,8.6c5.5,0,11.2-2.2,17.4-6.7
		c5.5-4,8.4-8.8,8.6-14.2c0-1.7-0.2-3.4-0.7-5.1c0.7,0.2,1.3,0.5,2,0.7c6.7,2.5,12.5,4.7,17.7,4.7c5.3,0,8.7-2.2,10.5-4.1
		c5-5,6.4-12.1,3.6-18.8c-4-9.7-17.4-18.5-29-21.8c0-0.7,0-1.3,0.1-2c0.4-10.4,0.9-24.6-7.4-33.2c-1.5-1.6-3.3-2.9-5.2-3.9
		c3.8-5.2,8.3-11.3,12.3-16.8c16.2-21.9,36.4-49.1,45.1-66.9c7.4-15.1,17-25.4,26.4-35.4c15.5-16.6,31.5-33.8,31.5-68.3
		c0-12.1-7.7-17.2-13.9-21.4c-2-1.4-4.4-2.9-6.9-5c-2.6-2.1-5.3-4.8-8.1-7.6c-9.1-8.8-18.4-18-29.1-19l-15.5-1.4
		c-27-2.4-44.8-4-49.7-9c-24.1-24.1-71-41-87.3-41c-9.7,0-17.8,7.4-28.2,16.7c-6.1,5.5-13,11.7-20.5,16.5c-4.7,3-14.7,6.8-26.2,11.1
		c-19.2,7.2-43.1,16.2-64.8,29.7c-14.8,9.2-28.1,20-41,30.4c-18,14.6-35,28.4-51,32.9c-12.2,3.4-24.6,3.9-36.3,3.9
		c-4.3,0-8.7-0.1-13.2-0.1c-4.9-0.1-9.9-0.2-15-0.2c-19,0-42.2,1-70.5,8.4C720.5,404.7,546.4,472,515.3,520.7
		c-9.8,15.3,7.5,28.3,21.4,38.8c2.8,2.1,6.9,5.2,9.8,7.7c-22.2,14.4-18.2,31.1-15.7,41.3c1.1,4.6,1.8,7.7,1.3,10.3
		c-1.7,0.3-4.2,0.7-6.1,0.9c-10.5,1.3-28.1,3.5-36.6,20.1c-8.7,17.1-9.7,34-2.9,50.2c19.7,46.8,101.8,72.4,128.7,80.9
		c16.6,5.2,34.2,14.3,51.2,23.2c22.1,11.5,42.9,22.3,62.5,25.5c10.1,1.6,20.7,2.4,34.5,2.4c7.8,0,15.9-0.2,24.6-0.5
		c9.7-0.3,20-0.6,31.3-0.6c18.1,0,34.4,0.7,51.3,2.4c30.3,2.9,60.9,8.1,85.5,12.3c22.5,3.8,40.3,6.9,50.3,6.9c3,0,5.3-0.2,7.4-0.8
		c11.5-2.9,14.8-9.2,15.6-13.9c0.2-1.1,0.2-2.2,0.2-3.2c8,2.8,16.4,4.8,24.5,4.8c10.8,0,19.9-3.5,26.8-10.5c4.4-4.4,6.4-10,5.5-15.7
		c-2.2-14.1-20-23.7-48.7-38.3c-8.9-4.5-22.1-11.2-29.6-16.4c1.1,0,2.3,0,3.6,0l13.3,0.1c10.9,0,25.3-0.4,39.9-3.9
		c16.8-4,30.2-13.6,41-21.4c5.7-4.1,13.5-9.7,16.2-9.8c9.7,6.6,18.1,12.6,25.7,18.1c32.3,23.1,51.8,37.1,87.1,37.1
		c2,0,5.8,1.9,9.7,3.9c8.2,4.2,19.5,10,35.9,10c5,0,10.3-0.6,15.7-1.7c9.3-1.9,16.6-5,22.5-7.4c5.4-2.2,9.6-4,13.2-4
		c0.4,0,0.9,0,1,0c1.1,0.2,4.3,1.7,6.9,3c11.5,5.3,30.7,14.2,58,14.2c3.9,0,14.4,0,18-8.9c2.7-6.7-0.6-12.2-5-17
		c2.5,0.6,5.4,1,8.7,1c8,0,14.7-4.7,18-12.7C1442.8,736.9,1438.5,720.7,1427.3,709.5L1427.3,709.5z M1278.1,323.4
		c21.9,0,39.8,17.8,39.8,39.8c0,21.9-17.8,39.8-39.8,39.8c-21.9,0-39.8-17.8-39.8-39.8C1238.4,341.3,1256.2,323.4,1278.1,323.4
		L1278.1,323.4z M683.6,574.7c-8,0-14.5-6.5-14.5-14.5c0-8,6.5-14.5,14.5-14.5c8,0,14.5,6.5,14.5,14.5
		C698.1,568.3,691.6,574.7,683.6,574.7z M811.6,578.8c-8,0-14.5-6.5-14.5-14.5c0-8,6.5-14.5,14.5-14.5c8,0,14.5,6.5,14.5,14.5
		C826,572.3,819.5,578.8,811.6,578.8z M842.1,496.7c-8,0-14.5-6.5-14.5-14.5s6.5-14.5,14.5-14.5s14.5,6.5,14.5,14.5
		C856.6,490.2,850.1,496.7,842.1,496.7z M888.8,710.7c-8,0-14.5-6.5-14.5-14.5c0-8,6.5-14.5,14.5-14.5c8,0,14.5,6.5,14.5,14.5
		C903.3,704.2,896.8,710.7,888.8,710.7z M888.8,570.7c-8,0-14.5-6.5-14.5-14.5c0-8,6.5-14.5,14.5-14.5c8,0,14.5,6.5,14.5,14.5
		C903.3,564.2,896.8,570.7,888.8,570.7z M927.4,451.7c0-8,6.5-14.5,14.5-14.5c8,0,14.5,6.5,14.5,14.5s-6.5,14.5-14.5,14.5
		C933.9,466.1,927.4,459.7,927.4,451.7z M951.5,522.5c-8,0-14.5-6.5-14.5-14.5c0-8,6.5-14.5,14.5-14.5S966,500,966,508
		C966,516,959.5,522.5,951.5,522.5z M1011.3,501.8c-8,0-14.5-6.5-14.5-14.5s6.5-14.5,14.5-14.5c8,0,14.5,6.5,14.5,14.5
		C1025.8,495.3,1019.3,501.8,1011.3,501.8z M1085.6,451.6c-8,0-14.5-6.5-14.5-14.5s6.5-14.5,14.5-14.5c8,0,14.5,6.5,14.5,14.5
		S1093.6,451.6,1085.6,451.6z M1136.5,511.2c-8,0-14.5-6.5-14.5-14.5s6.5-14.5,14.5-14.5c8,0,14.5,6.5,14.5,14.5
		S1144.5,511.2,1136.5,511.2z M1154.1,412.6c-8,0-14.5-6.5-14.5-14.5s6.5-14.5,14.5-14.5c8,0,14.5,6.5,14.5,14.5
		C1168.6,406.1,1162.1,412.6,1154.1,412.6z"/>
	<circle class="st0" cx="1278.1" cy="363.2" r="18.2"/>
</g>
</svg>
