<?xml version="1.0" encoding="utf-8"?>
<!-- Generator: Adobe Illustrator 24.2.1, SVG Export Plug-In . SVG Version: 6.00 Build 0)  -->
<svg version="1.1" id="Layer_1" xmlns="http://www.w3.org/2000/svg" xmlns:xlink="http://www.w3.org/1999/xlink" x="0px" y="0px"
	 viewBox="0 0 28.4 20.3" style="enable-background:new 0 0 28.4 20.3;" xml:space="preserve">
<style type="text/css">
	.st0{fill:#FFFFFF;}
</style>
<path class="st0" d="M2.2,4.2h24c1.1,0,2-0.9,2-2s-0.9-2-2-2h-24c-1.1,0-2,0.9-2,2S1.1,4.2,2.2,4.2z M26.2,8.2h-24c-1.1,0-2,0.9-2,2
	s0.9,2,2,2h24c1.1,0,2-0.9,2-2S27.3,8.2,26.2,8.2z M26.2,16.2h-24c-1.1,0-2,0.9-2,2s0.9,2,2,2h24c1.1,0,2-0.9,2-2
	S27.3,16.2,26.2,16.2z"/>
</svg>
